<svg xmlns="http://www.w3.org/2000/svg" width="107.933" height="107.934" viewBox="0 0 107.933 107.934">
  <path id="Path_5200" data-name="Path 5200" d="M182,61.269a82.246,82.246,0,0,0-8.2-2.138q-.891-4.1-2.138-8.2C167.15,36.317,159.783,28,151.466,28s-15.684,8.317-20.2,22.931c-4.634,15.208-5.346,32.318-2.97,48.12a45.059,45.059,0,0,1-6.059-1.663h-.119c-12.239-3.8-19.6-9.742-19.6-15.921s7.366-12.119,19.6-15.921a2.22,2.22,0,0,0-1.188-4.277C106.316,65.784,98,73.151,98,81.468s8.317,15.684,22.931,20.2h.119a72.939,72.939,0,0,0,8.079,2.02q.891,4.1,2.138,8.2c4.516,14.733,11.883,23.05,20.2,23.05s15.684-8.317,20.2-22.931a2.254,2.254,0,1,0-4.277-1.426c-3.8,12.476-9.742,19.842-15.921,19.842s-12.119-7.366-16.04-19.723c-.594-1.9-1.069-3.921-1.545-6.059a115.822,115.822,0,0,0,41.942-1.307c18.18-4.159,29.11-12.357,29.11-21.862,0-8.317-8.317-15.684-22.931-20.2Zm-7.248,37.783a110.084,110.084,0,0,1-41.823.951c-2.614-15.565-2.02-32.555,2.5-47.645,3.92-12.476,9.861-19.842,16.04-19.842s12.119,7.366,16.04,19.723c.594,1.9,1.069,3.921,1.545,6.059a123.514,123.514,0,0,0-28.872-.832,2.205,2.205,0,0,0,.356,4.4,110.534,110.534,0,0,1,29.347,1.069c.475,2.5.832,5.109,1.069,7.723a109.607,109.607,0,0,1,0,21.624,2.218,2.218,0,0,0,4.4.594v-.119a118.184,118.184,0,0,0,0-22.456c-.238-2.138-.475-4.277-.832-6.3,31.724,6.417,36.239,26.852.237,35.05Z" transform="translate(-97.5 -27.501)" fill="#4db8ef" stroke="#4db8ef" stroke-width="1"/>
</svg>
