<svg xmlns="http://www.w3.org/2000/svg" width="97.883" height="97.5" viewBox="0 0 97.883 97.5">
  <g id="Group_4623" data-name="Group 4623" transform="translate(-139.75 -5028.25)">
    <g id="Group_4546" data-name="Group 4546" transform="translate(140 5028.5)">
      <path id="Path_5168" data-name="Path 5168" d="M182.516,17.5H87.8a1.335,1.335,0,0,0-1.335,1.334v94.33A1.336,1.336,0,0,0,87.8,114.5h94.714a1.336,1.336,0,0,0,1.334-1.336V18.834A1.335,1.335,0,0,0,182.516,17.5Zm-1.335,94.33H89.135V33.987h92.046Zm0-80.513H89.135V20.171h92.046Z" transform="translate(-86.467 -17.5)" fill="#4db8ef" stroke="#4db8ef" stroke-width="0.5"/>
      <path id="Path_5169" data-name="Path 5169" d="M124.1,55.388h.952a1.335,1.335,0,1,0,0-2.669H124.1a1.335,1.335,0,0,0,0,2.669Z" transform="translate(-116.06 -46.211)" fill="#4db8ef" stroke="#4db8ef" stroke-width="0.5"/>
      <path id="Path_5170" data-name="Path 5170" d="M158.782,55.388h.952a1.335,1.335,0,0,0,0-2.669h-.952a1.335,1.335,0,0,0,0,2.669Z" transform="translate(-144.333 -46.211)" fill="#4db8ef" stroke="#4db8ef" stroke-width="0.5"/>
      <path id="Path_5171" data-name="Path 5171" d="M193.462,55.388h.952a1.335,1.335,0,0,0,0-2.669h-.952a1.335,1.335,0,1,0,0,2.669Z" transform="translate(-172.605 -46.211)" fill="#4db8ef" stroke="#4db8ef" stroke-width="0.5"/>
      <path id="Path_5172" data-name="Path 5172" d="M297.015,198.7a16.386,16.386,0,0,0,10.355,3.67,16.567,16.567,0,0,0,2.36-.19c.007,0,.012.007.02.007.052,0,.106,0,.158-.008a1.285,1.285,0,0,0,.171-.056,16.518,16.518,0,1,0-18.734-19.584,1.067,1.067,0,0,0-.15.81,16.409,16.409,0,0,0,5.82,15.35Zm12.288-9.129a3.1,3.1,0,1,1,1.322-1.972A3.107,3.107,0,0,1,309.3,189.569Zm-12.636-12.35a13.705,13.705,0,0,1,9.284-5.034,14.16,14.16,0,0,1,1.458-.076,13.767,13.767,0,0,1,3.49,27.1l-.836-7.07a5.551,5.551,0,0,0,.719-.341,5.772,5.772,0,1,0-8.126-7.779l-8.537-1.874a13.774,13.774,0,0,1,2.548-4.919Zm-3.022,7.548,8.206,1.8a5.677,5.677,0,0,0,5.6,6.177l.814,6.881a13.7,13.7,0,0,1-14.615-14.86Z" transform="translate(-253.203 -141.364)" fill="#4db8ef" stroke="#4db8ef" stroke-width="0.5"/>
      <path id="Path_5173" data-name="Path 5173" d="M170.274,130.993c.088,0,.175-.033.263-.038l3.494,7.287a4.759,4.759,0,0,0-.493,1.193,4.856,4.856,0,0,0,3.809,5.715,4.968,4.968,0,0,0,.963.1,4.818,4.818,0,0,0,2.682-.816c.1-.066.152-.173.245-.245l2.452.538a21.589,21.589,0,0,0,.032,4.153,21.232,21.232,0,0,0,4.375,10.87l-3.137,3.869-.233-.188a1.333,1.333,0,0,0-1.877.2l-1.755,2.162a8.119,8.119,0,0,0-1.657,3.587,4.961,4.961,0,0,1-.645,1.913l-7.417,9.149a10.541,10.541,0,0,1-3.978,3.007,1.333,1.333,0,0,0-.5.378,1.835,1.835,0,0,0-.334,1.157c.142,1.369,2.4,3.393,3.74,4.478,1.543,1.251,3.625,2.7,4.971,2.7a1.91,1.91,0,0,0,.2-.009,1.961,1.961,0,0,0,1.1-.609,1.327,1.327,0,0,0,.251-.554,10.272,10.272,0,0,1,2.086-4.436l7.417-9.149a4.957,4.957,0,0,1,1.74-1.028,8.1,8.1,0,0,0,3.166-2.363l1.752-2.162a1.337,1.337,0,0,0-.2-1.877l-.233-.189,3.167-3.907a21.139,21.139,0,0,0,9.245,2.19,21.544,21.544,0,0,0,2.266-.119l.029,0,.353,1.767c-.118.065-.242.114-.356.19A4.857,4.857,0,0,0,209,178.7a4.968,4.968,0,0,0,.963.1,4.87,4.87,0,0,0,4.023-2.151l6.494,2.285a4.834,4.834,0,1,0,.829-2.539L214.8,174.1a4.827,4.827,0,0,0-3.888-4.92,4.936,4.936,0,0,0-.687-.069l-.326-1.63a21.4,21.4,0,1,0-25.787-25.394l-1.241-.273a5,5,0,0,0,.194-.468,4.83,4.83,0,0,0-7.073-5.2l-2.914-6.076a4.842,4.842,0,0,0-5.5-7.969,4.851,4.851,0,0,0,2.7,8.892Zm52.9,47.7a2.188,2.188,0,0,1,2.139-1.757,2.255,2.255,0,0,1,.434.043,2.163,2.163,0,0,1,1.39.93,2.188,2.188,0,0,1-2.249,3.358,2.188,2.188,0,0,1-1.714-2.574Zm-34.015-6.366a5.381,5.381,0,0,1-2.115,1.579,6.968,6.968,0,0,0-2.788,1.812l-7.417,9.149a12.927,12.927,0,0,0-2.3,4.292,17.973,17.973,0,0,1-2.554-1.776,18.975,18.975,0,0,1-2.266-2.125,12.923,12.923,0,0,0,3.724-3.142l7.417-9.147a6.953,6.953,0,0,0,1.2-3.1,5.431,5.431,0,0,1,1.108-2.4l.912-1.126.233.189.151.122,5.608,4.548Zm1.324-4.229-3.451-2.8,2.844-3.509a21.7,21.7,0,0,0,1.651,1.49,21.411,21.411,0,0,0,1.844,1.254Zm19.463,3.652a2.187,2.187,0,0,1,1.22,4.006,2.143,2.143,0,0,1-1.641.324,2.186,2.186,0,0,1,.421-4.33Zm-19.493-36.894a18.618,18.618,0,0,1,12.605-6.836,19.307,19.307,0,0,1,1.983-.1,18.737,18.737,0,1,1-14.588,6.938Zm-14.3,5.1a2.188,2.188,0,1,1,.326,1.643A2.165,2.165,0,0,1,176.154,139.957Zm-7.1-15.637a2.186,2.186,0,1,1-.606,3.031,2.188,2.188,0,0,1,.606-3.031Z" transform="translate(-150.827 -102.109)" fill="#4db8ef" stroke="#4db8ef" stroke-width="0.5"/>
    </g>
  </g>
</svg>
