<svg xmlns="http://www.w3.org/2000/svg" width="101.334" height="91.354" viewBox="0 0 101.334 91.354">
  <g id="Group_4622" data-name="Group 4622" transform="translate(-1171.5 -5034.646)">
    <path id="Path_5174" data-name="Path 5174" d="M174.368,35.5H82.924a4.451,4.451,0,0,0-4.446,4.446v81.461a4.452,4.452,0,0,0,4.446,4.447h91.443a4.452,4.452,0,0,0,4.446-4.447V39.95a4.45,4.45,0,0,0-4.445-4.448ZM80.83,39.946a2.1,2.1,0,0,1,2.095-2.095h91.443a2.1,2.1,0,0,1,2.095,2.095v8.712H80.831ZM174.368,123.5H82.924a2.1,2.1,0,0,1-2.095-2.1v-70.4h95.631v70.4a2.1,2.1,0,0,1-2.095,2.095Z" transform="translate(1093.522 4999.646)" fill="#4db8ef" stroke="#4db8ef" stroke-width="1"/>
    <path id="Path_5175" data-name="Path 5175" d="M167.952,71.1H128.272a1.176,1.176,0,0,0,0,2.352H167.95a1.176,1.176,0,0,0,0-2.352Z" transform="translate(1053.887 4970.622)" fill="#4db8ef" stroke="#4db8ef" stroke-width="1"/>
    <path id="Path_5176" data-name="Path 5176" d="M535.414,56.824a3.815,3.815,0,1,0,3.816,3.815A3.819,3.819,0,0,0,535.414,56.824Zm0,5.278a1.464,1.464,0,1,1,1.464-1.464A1.466,1.466,0,0,1,535.414,62.1Z" transform="translate(724.125 4982.263)" fill="#4db8ef" stroke="#4db8ef" stroke-width="1"/>
    <path id="Path_5177" data-name="Path 5177" d="M478.924,56.824a3.815,3.815,0,1,0,3.816,3.815A3.819,3.819,0,0,0,478.924,56.824Zm0,5.278a1.464,1.464,0,1,1,1.464-1.464A1.466,1.466,0,0,1,478.924,62.1Z" transform="translate(770.177 4982.263)" fill="#4db8ef" stroke="#4db8ef" stroke-width="1"/>
    <path id="Path_5178" data-name="Path 5178" d="M422.434,56.824a3.815,3.815,0,1,0,3.816,3.815A3.819,3.819,0,0,0,422.434,56.824Zm0,5.278a1.464,1.464,0,1,1,1.464-1.464A1.466,1.466,0,0,1,422.434,62.1Z" transform="translate(816.23 4982.263)" fill="#4db8ef" stroke="#4db8ef" stroke-width="1"/>
    <path id="Path_5179" data-name="Path 5179" d="M228.8,190.929a9.312,9.312,0,0,0,6.629-2.742l13.216-13.2a9.4,9.4,0,0,0-.016-13.28l-.472-.471a9.387,9.387,0,0,0-13.279-.014l-13.2,13.213a9.316,9.316,0,0,0-2.491,8.753l-1.067,1.067a9.434,9.434,0,0,0-8.671,2.491l-13.2,13.216a9.4,9.4,0,0,0-.014,13.266l.486.5a9.408,9.408,0,0,0,13.279,0l13.218-13.216a9.363,9.363,0,0,0,2.469-8.833l1.013-1.013a9.452,9.452,0,0,0,2.1.262Zm-17.858,3.978a4.805,4.805,0,0,0,1.224,2.149,5.8,5.8,0,0,0,2.955,1.922l-9.922,9.934a2.64,2.64,0,0,1-3.682-.014l-.472-.456a2.6,2.6,0,0,1,.017-3.667Zm2.631-2.629c.155-.158,6.436-6.479,7.479-7.632.326-.163,6.214-6.174,6.056-6.014a2.176,2.176,0,0,1,1.358-.491,3.584,3.584,0,0,1,3.041,2.231,2.3,2.3,0,0,1-.5,2.659L217.992,196.04a2.549,2.549,0,0,1-3.519,0l-.646-.646a2.486,2.486,0,0,1-.406-2.964Zm20.321-12.17a5.384,5.384,0,0,0-.213-.635,6.141,6.141,0,0,0-3.926-3.487l9.952-9.952a2.642,2.642,0,0,1,3.636,0l.488.486a2.573,2.573,0,0,1,.759,1.839,2.538,2.538,0,0,1-.759,1.812ZM223.338,176.1l13.2-13.213a7.036,7.036,0,0,1,9.955.014l.472.471a7.046,7.046,0,0,1,.016,9.954l-13.216,13.2a6.982,6.982,0,0,1-4.89,2.053l3.84-3.84a4.743,4.743,0,0,0,.611-.735l12.162-12.162a4.925,4.925,0,0,0,.005-6.982l-.488-.484a5.049,5.049,0,0,0-6.961,0L225.422,177c-.6.525-2.5,2.469-4.137,4.1a6.955,6.955,0,0,1,2.053-5Zm-1.789,22.747-13.218,13.216a7.057,7.057,0,0,1-9.941.014l-.484-.5a7.05,7.05,0,0,1,0-9.955c12.083-11.332,13.254-15.237,18.109-15.267-3.845,3.895-4,3.887-4.484,4.634L199.4,203.11a4.956,4.956,0,0,0,0,7.008l.467.452a5.059,5.059,0,0,0,7,.005L219.4,198.022c.107-.091.213-.18.3-.27l3.911-3.911a7.021,7.021,0,0,1-2.062,5.006Z" transform="translate(999.753 4899.392)" fill="#4db8ef" stroke="#4db8ef" stroke-width="1"/>
    <path id="Path_5180" data-name="Path 5180" d="M242.844,209.8a1.176,1.176,0,1,0,1.661-1.664l-6.688-6.686a1.176,1.176,0,1,0-1.664,1.664Z" transform="translate(965.26 4864.641)" fill="#4db8ef" stroke="#4db8ef" stroke-width="1"/>
    <path id="Path_5181" data-name="Path 5181" d="M417.261,380.881a1.176,1.176,0,1,0-1.664,1.664l6.686,6.686a1.176,1.176,0,1,0,1.661-1.664Z" transform="translate(818.973 4718.362)" fill="#4db8ef" stroke="#4db8ef" stroke-width="1"/>
    <path id="Path_5182" data-name="Path 5182" d="M344.812,168.268a1.176,1.176,0,0,0,1.176-1.176v-9.455a1.176,1.176,0,1,0-2.352,0v9.457a1.176,1.176,0,0,0,1.176,1.174Z" transform="translate(877.357 4901.035)" fill="#4db8ef" stroke="#4db8ef" stroke-width="1"/>
    <path id="Path_5183" data-name="Path 5183" d="M344.812,410.2a1.176,1.176,0,0,0-1.176,1.176v9.457a1.176,1.176,0,0,0,2.352,0v-9.457A1.176,1.176,0,0,0,344.812,410.2Z" transform="translate(877.357 4694.18)" fill="#4db8ef" stroke="#4db8ef" stroke-width="1"/>
    <path id="Path_5184" data-name="Path 5184" d="M201.8,311.265a1.176,1.176,0,1,0,0-2.351h-9.457a1.176,1.176,0,1,0,0,2.351Z" transform="translate(1001.655 4776.752)" fill="#4db8ef" stroke="#4db8ef" stroke-width="1"/>
    <path id="Path_5185" data-name="Path 5185" d="M455.549,308.92h-9.457a1.176,1.176,0,0,0,0,2.352h9.457a1.176,1.176,0,0,0,0-2.352Z" transform="translate(794.79 4776.746)" fill="#4db8ef" stroke="#4db8ef" stroke-width="1"/>
  </g>
</svg>
