<svg xmlns="http://www.w3.org/2000/svg" xmlns:xlink="http://www.w3.org/1999/xlink" width="69" height="69" viewBox="0 0 69 69">
  <defs>
    <clipPath id="clip-path">
      <rect id="Rectangle_682" data-name="Rectangle 682" width="69" height="69" transform="translate(-755 2254)" fill="#fff"/>
    </clipPath>
  </defs>
  <g id="Mask_Group_88" data-name="Mask Group 88" transform="translate(755 -2254)" clip-path="url(#clip-path)">
    <path id="Path_5165" data-name="Path 5165" d="M131.164,134.4a5.122,5.122,0,0,0-2.745.807l29.489,25.75a3.576,3.576,0,0,0,5,0l29.543-25.776a5.149,5.149,0,0,0-2.745-.78H131.164Zm-4.87,3.5a5.145,5.145,0,0,0-.3,1.668v34.439a5.155,5.155,0,0,0,5.166,5.166h58.547a5.155,5.155,0,0,0,5.166-5.166V139.566a5.151,5.151,0,0,0-.3-1.668l-29.409,25.668a7.22,7.22,0,0,1-9.524-.026Z" transform="translate(-880.998 2133.987)" fill="#fff"/>
  </g>
</svg>
